:SAMPLES-PER-SECOND 30
:FULLY-SPECIFIED
:DEGREES
147
root  -52.873 39.9743 13.1495 -156.182 -83.3197 158.751
RightUpLeg  -18.4088 -12.6095 -4.84393
RightLeg  15.2739 3.38366 2.38869
RightFoot  1.0719 -0.0639216 0.654352
RightToes  -6.98493e-010 0 -3.6325e-017
Spine  23.2649 -1.93247 12.4864
Spine1  6.21993 2.83146 -11.289
HEad  -13.5894 -12.5941 3.91412
LeftShoulder1  2.21557 -5.83578 -17.0599
LeftArm  -15.4916 -71.6567 -39.1056
LeftForeArm  -21.967 -18.1482 -5.05845
LeftHand  -0.0196749 8.08034 0.99707
RightShoulder  0.818622 3.30111 4.10549
RightArm  -35.5289 64.6808 11.106
RightForeArm  -38.1923 4.22141 0.504699
RightHand  0.205382 2.46947 2.84127
LeftUpLeg  -18.8726 -2.93359 0.792714
LeftLeg  13.1418 -10.3442 -2.06871
LeftFoot  3.99787 0.126063 -1.11078
LeftToes  7.91257e-010 -1.64976e-010 -3.02228e-011
148
root  -53.1011 39.936 13.1781 -159.936 -83.3094 161.786
RightUpLeg  -17.4438 -12.6121 -4.87808
RightLeg  15.8476 3.7613 2.57898
RightFoot  0.139244 -0.0993215 1.00075
RightToes  -6.98493e-010 0 -3.6325e-017
Spine  22.4877 -2.18112 13.3467
Spine1  6.21378 2.58525 -11.2057
HEad  -12.758 -13.1341 4.48281
LeftShoulder1  2.25416 -6.0411 -16.9447
LeftArm  -14.8758 -68.5233 -40.3145
LeftForeArm  -21.6827 -19.732 -5.2514
LeftHand  -0.010169 7.54035 1.56281
RightShoulder  0.876974 2.96474 5.81608
RightArm  -31.6849 64.0555 14.0595
RightForeArm  -38.6557 7.09412 1.48417
RightHand  0.195171 2.95237 2.48737
LeftUpLeg  -19.6764 -3.70429 1.46206
LeftLeg  16.8331 -9.61392 -2.97731
LeftFoot  3.34873 0.180273 -1.56583
LeftToes  7.91257e-010 -1.64976e-010 -3.02228e-011
149
root  -53.377 39.873 13.2722 -165.262 -83.0229 165.952
RightUpLeg  -16.1243 -12.8125 -4.99842
RightLeg  16.7229 4.59292 2.86751
RightFoot  -0.984251 -0.155013 1.63341
RightToes  -6.98493e-010 0 -3.6325e-017
Spine  21.7224 -2.36779 14.3512
Spine1  6.75831 2.4941 -11.0433
HEad  -12.8506 -13.2555 4.28144
LeftShoulder1  2.26707 -5.90719 -17.4521
LeftArm  -14.1751 -65.6772 -41.5445
LeftForeArm  -20.8976 -21.7899 -5.62298
LeftHand  -0.009378 7.0233 1.83307
RightShoulder  0.913373 2.82891 6.81394
RightArm  -28.4529 62.309 17.3508
RightForeArm  -38.1408 10.7937 2.05644
RightHand  0.199746 3.33433 2.41466
LeftUpLeg  -20.4276 -2.70539 1.87447
LeftLeg  21.8072 -11.3731 -4.66489
LeftFoot  2.70822 0.36877 -3.10228
LeftToes  7.91257e-010 -1.64976e-010 -3.02228e-011
150
root  -53.6853 39.8024 13.434 -170.201 -82.574 169.751
RightUpLeg  -14.7938 -13.2358 -5.28169
RightLeg  17.6046 5.82771 3.35029
RightFoot  -2.1241 -0.198866 2.2929
RightToes  -6.98493e-010 0 -3.6325e-017
Spine  20.8616 -2.35002 15.0649
Spine1  7.20586 2.39195 -10.1733
HEad  -12.5559 -13.587 3.74926
LeftShoulder1  2.30561 -5.72323 -18.4503
LeftArm  -13.0684 -62.4442 -43.129
LeftForeArm  -19.8116 -24.1067 -6.08845
LeftHand  -0.0198465 6.43648 1.51795
RightShoulder  0.923962 2.53819 7.77682
RightArm  -26.8632 60.3397 19.7152
RightForeArm  -36.4967 15.1688 3.12037
RightHand  0.121421 3.04221 1.44454
LeftUpLeg  -21.3517 -2.7597 2.57915
LeftLeg  27.4426 -12.9641 -6.89466
LeftFoot  2.22758 0.636004 -5.55207
LeftToes  7.91257e-010 -1.64976e-010 -3.02228e-011
151
root  -54.0476 39.6911 13.6602 -174.006 -81.4629 172.659
RightUpLeg  -14.0768 -13.2178 -5.61098
RightLeg  19.0165 7.17061 3.72015
RightFoot  -3.44535 -0.243099 3.17843
RightToes  -6.98493e-010 0 -3.6325e-017
Spine  20.0406 -2.19059 15.0907
Spine1  7.22957 2.08816 -8.56247
HEad  -12.038 -13.3076 2.69636
LeftShoulder1  2.23937 -4.89745 -20.2102
LeftArm  -11.5608 -59.306 -43.3986
LeftForeArm  -20.1478 -26.4701 -6.65605
LeftHand  -0.0136851 6.39685 2.13289
RightShoulder  0.934267 2.49392 8.12122
RightArm  -27.7759 57.9298 23.7776
RightForeArm  -30.9181 19.9845 4.65859
RightHand  0.124523 3.13066 1.4719
LeftUpLeg  -22.1471 -2.47364 3.46367
LeftLeg  32.9646 -13.8466 -9.17153
LeftFoot  0.840479 1.22002 -11.3969
LeftToes  7.91257e-010 -1.64976e-010 -3.02228e-011
152
root  -54.4373 39.6383 13.9491 -177.998 -80.1249 175.59
RightUpLeg  -12.7702 -13.166 -6.03306
RightLeg  19.5838 8.71781 4.19383
RightFoot  -4.16875 -0.288823 4.15055
RightToes  -6.98493e-010 0 -3.6325e-017
Spine  19.1582 -2.27487 15.8021
Spine1  7.61871 2.07657 -8.32543
HEad  -11.4864 -13.0541 1.78795
LeftShoulder1  2.17346 -4.5208 -20.6725
LeftArm  -11.7458 -55.3256 -44.0585
LeftForeArm  -18.5351 -29.1647 -7.25489
LeftHand  -0.0117636 6.2648 2.59631
RightShoulder  0.87368 1.72153 9.39281
RightArm  -27.6091 55.9097 28.0256
RightForeArm  -26.8174 24.8766 6.61904
RightHand  0.050763 3.27746 0.437209
LeftUpLeg  -22.364 -2.17252 4.48437
LeftLeg  37.8301 -14.0044 -11.0639
LeftFoot  0.284772 1.36314 -13.3509
LeftToes  7.91257e-010 -1.64976e-010 -3.02228e-011
153
root  -54.8667 39.6438 14.2613 -179.361 -78.0814 175.865
RightUpLeg  -11.3319 -12.7347 -6.77778
RightLeg  19.6335 10.6775 4.5593
RightFoot  -4.64358 -0.316297 4.85734
RightToes  -6.98493e-010 0 -3.6325e-017
Spine  18.2134 -2.24934 15.6464
Spine1  8.20031 2.11139 -8.26881
HEad  -10.5673 -12.5485 1.07634
LeftShoulder1  2.11521 -4.28536 -20.7599
LeftArm  -12.8099 -49.9883 -44.2257
LeftForeArm  -17.0952 -33.1207 -8.24218
LeftHand  -0.0117972 6.0504 3.0051
RightShoulder  0.83791 1.10956 11.0302
RightArm  -24.6327 53.368 32.9116
RightForeArm  -24.1597 30.4699 7.8447
RightHand  0.0135244 3.09769 -0.0445885
LeftUpLeg  -21.62 -2.23268 5.45546
LeftLeg  40.5085 -13.6414 -11.8429
LeftFoot  -1.38444 1.14016 -12.9422
LeftToes  7.91257e-010 -1.64976e-010 -3.02228e-011
154
root  -55.3369 39.6888 14.6308 -179.832 -75.8682 175.631
RightUpLeg  -10.1585 -12.2951 -7.606
RightLeg  19.1786 12.5733 4.8149
RightFoot  -4.6092 -0.352754 5.45497
RightToes  -6.98493e-010 0 -3.6325e-017
Spine  17.0682 -2.26409 15.3084
Spine1  8.61365 2.0312 -8.3809
HEad  -9.62232 -11.9129 0.750045
LeftShoulder1  1.94592 -3.44134 -21.6694
LeftArm  -12.5592 -44.985 -44.0677
LeftForeArm  -15.3424 -37.2963 -9.39185
LeftHand  -0.0275874 5.40741 2.05178
RightShoulder  0.786639 0.413494 13.1667
RightArm  -22.0099 50.7884 36.6626
RightForeArm  -21.6512 35.7856 9.2457
RightHand  -0.00969395 2.85107 -0.36013
LeftUpLeg  -20.2276 -2.89245 6.5279
LeftLeg  39.8456 -13.1069 -11.1434
LeftFoot  -2.77046 0.912982 -11.9351
LeftToes  7.91257e-010 -1.64976e-010 -3.02228e-011
155
root  -55.8154 39.7641 14.9927 179.944 -73.9094 175.156
RightUpLeg  -8.78746 -11.4737 -8.37087
RightLeg  18.2189 13.8393 4.52198
RightFoot  -4.35517 -0.395214 5.98408
RightToes  -6.98493e-010 0 -3.6325e-017
Spine  16.0879 -2.20727 14.4896
Spine1  8.76634 1.79277 -7.93342
HEad  -8.97705 -11.5861 0.528666
LeftShoulder1  1.84728 -2.85436 -22.7557
LeftArm  -12.2862 -39.9153 -43.5642
LeftForeArm  -12.9041 -41.4648 -10.6675
LeftHand  -0.0354554 4.62595 1.91304
RightShoulder  0.659452 -0.43297 14.7538
RightArm  -19.776 46.6565 40.4561
RightForeArm  -19.0156 41.7104 11.0978
RightHand  -0.0553774 2.37281 -1.01948
LeftUpLeg  -17.9784 -4.89348 7.67993
LeftLeg  36.1641 -12.5708 -9.36726
LeftFoot  -3.58725 0.709345 -10.1073
LeftToes  7.91257e-010 -1.64976e-010 -3.02228e-011
156
root  -56.2735 39.7479 15.4109 178.884 -71.5902 176.057
RightUpLeg  -8.51109 -10.7314 -8.7407
RightLeg  18.0088 15.4942 4.63061
RightFoot  -4.30848 -0.424363 6.41972
RightToes  -6.98493e-010 0 -3.6325e-017
Spine  14.6535 -2.0253 13.7549
Spine1  9.15693 1.61063 -7.41207
HEad  -8.12857 -11.1266 0.414519
LeftShoulder1  1.72046 -2.28233 -23.4638
LeftArm  -12.8344 -35.0533 -43.1839
LeftForeArm  -10.2808 -45.6466 -12.126
LeftHand  -0.0318487 3.99739 0.853547
RightShoulder  0.508219 -1.27985 16.3367
RightArm  -18.1244 41.8726 43.4676
RightForeArm  -15.3732 47.8638 13.4453
RightHand  -0.0647113 2.06571 -1.18732
LeftUpLeg  -16.0007 -7.17831 9.35314
LeftLeg  31.4589 -13.2203 -8.25231
LeftFoot  -4.83064 0.498877 -8.27517
LeftToes  7.91257e-010 -1.64976e-010 -3.02228e-011
157
root  -56.7628 39.7446 15.9249 178.372 -68.3692 175.519
RightUpLeg  -7.57315 -9.73644 -9.76225
RightLeg  17.6894 17.9548 4.80527
RightFoot  -4.14616 -0.471892 7.04581
RightToes  -6.98493e-010 0 -3.6325e-017
Spine  13.9687 -1.81472 12.0296
Spine1  9.98034 1.41783 -6.52839
HEad  -7.39472 -10.7684 0.466273
LeftShoulder1  1.51548 -1.41173 -24.6912
LeftArm  -13.2002 -31.0259 -42.4929
LeftForeArm  -8.60168 -49.2503 -13.6561
LeftHand  -0.0363404 3.49106 1.11862
RightShoulder  0.418062 -1.73153 17.1878
RightArm  -16.7707 36.6743 45.9611
RightForeArm  -11.672 53.8403 16.4116
RightHand  -0.0920461 1.60489 -1.67607
LeftUpLeg  -12.1713 -11.7067 9.96621
LeftLeg  25.746 -15.3416 -7.59717
LeftFoot  -5.85669 0.416872 -7.96885
LeftToes  7.91257e-010 -1.64976e-010 -3.02228e-011
158
root  -57.2198 39.6849 16.5318 177.786 -64.7672 175.18
RightUpLeg  -7.23387 -8.31939 -10.829
RightLeg  17.6275 20.3259 5.21408
RightFoot  -3.97421 -0.521656 7.67524
RightToes  -6.98493e-010 0 -3.6325e-017
Spine  14.0565 -2.00731 10.4386
Spine1  9.74321 0.949234 -6.23097
HEad  -6.71061 -10.2205 0.817745
LeftShoulder1  1.20338 -0.160587 -26.6321
LeftArm  -13.2112 -27.3366 -40.059
LeftForeArm  -6.30706 -53.118 -15.5721
LeftHand  -0.0343129 3.44444 0.974908
RightShoulder  0.480541 -1.45948 17.117
RightArm  -16.4732 30.3443 49.3566
RightForeArm  -7.16396 59.1975 19.9758
RightHand  -0.122087 1.45517 -2.20955
LeftUpLeg  -8.75846 -17.358 9.72187
LeftLeg  21.5768 -17.5102 -7.18405
LeftFoot  -6.11177 0.400138 -8.017
LeftToes  7.91257e-010 -1.64976e-010 -3.02228e-011
159
root  -57.6516 39.5395 17.2804 177.141 -60.6902 175.444
RightUpLeg  -7.97476 -6.26318 -11.6615
RightLeg  17.8143 22.3977 5.75214
RightFoot  -3.90223 -0.604306 8.87084
RightToes  -6.98493e-010 0 -3.6325e-017
Spine  14.0688 -2.0423 9.63746
Spine1  9.7103 0.915678 -6.61718
HEad  -6.18962 -10.7005 1.6902
LeftShoulder1  1.02981 0.348919 -26.4759
LeftArm  -13.1709 -23.5947 -39.195
LeftForeArm  -3.88999 -56.9139 -17.8607
LeftHand  -0.0329185 3.41645 0.885865
RightShoulder  0.370126 -1.99637 18.2577
RightArm  -16.3086 24.9679 50.8837
RightForeArm  -1.44692 64.2427 24.7147
RightHand  -0.110866 1.27891 -2.06721
LeftUpLeg  -6.63963 -19.1187 8.91668
LeftLeg  20.503 -18.4108 -7.15243
LeftFoot  -8.15161 0.280574 -7.93611
LeftToes  7.91257e-010 -1.64976e-010 -3.02228e-011
160
root  -57.9915 39.4056 18.1222 176.585 -56.2532 176.03
RightUpLeg  -9.15775 -4.41889 -12.1174
RightLeg  17.0908 24.9068 5.91745
RightFoot  -3.16234 -0.765252 10.3647
RightToes  -6.98493e-010 0 -3.6325e-017
Spine  13.6362 -2.0477 9.49071
Spine1  10.5565 1.21331 -7.84375
HEad  -6.46364 -12.9602 3.53497
LeftShoulder1  1.05883 0.194389 -25.8413
LeftArm  -13.6298 -20.4269 -38.3749
LeftForeArm  -1.22505 -60.327 -20.4293
LeftHand  -0.0303738 3.42173 0.718648
RightShoulder  0.258716 -2.46648 19.4124
RightArm  -16.7465 20.36 51.3278
RightForeArm  5.25631 68.7943 31.0163
RightHand  -0.119679 0.728636 -2.35513
LeftUpLeg  -5.61328 -15.3071 8.06822
LeftLeg  21.0838 -18.4494 -7.37702
LeftFoot  -11.4018 0.0610373 -5.64883
LeftToes  7.91257e-010 -1.64976e-010 -3.02228e-011
161
root  -58.2573 39.3767 19.0099 176.469 -51.6497 176.153
RightUpLeg  -9.69591 -4.52327 -12.301
RightLeg  14.1715 29.5063 4.80437
RightFoot  -1.3604 -1.10163 12.4286
RightToes  -6.98493e-010 0 -3.6325e-017
Spine  12.7275 -1.8606 8.77518
Spine1  12.7715 1.69987 -9.14895
HEad  -8.35263 -14.3387 5.37064
LeftShoulder1  1.15745 -0.182468 -25.2052
LeftArm  -14.3982 -18.1757 -38.1019
LeftForeArm  2.83443 -63.571 -23.3419
LeftHand  -0.0228201 3.60701 0.240243
RightShoulder  0.0227955 -3.40193 21.3171
RightArm  -16.9634 17.7719 50.7554
RightForeArm  11.6804 71.7724 37.2482
RightHand  -0.109007 1.33834 -2.01485
LeftUpLeg  -4.78246 -12.2731 6.52701
LeftLeg  20.6986 -14.9412 -5.83138
LeftFoot  -11.7706 0.0516565 -4.20052
LeftToes  7.91257e-010 -1.64976e-010 -3.02228e-011
